<svg xmlns="http://www.w3.org/2000/svg" viewBox="0 0 100 100"><path d="M50,100A50,50,0,1,0,0,50,49.87981,49.87981,0,0,0,50,100Z" transform="translate(0 0)" style="fill:#2775ca"/><path d="M63.95824,57.39575c0-7.2915-4.375-9.7915-13.125-10.833-6.25-.8335-7.5-2.5-7.5-5.417s2.0835-4.7915,6.25-4.7915c3.75,0,5.8335,1.25,6.875,4.375a1.56688,1.56688,0,0,0,1.4585,1.0415h3.333a1.424,1.424,0,0,0,1.4585-1.458v-.2085a10.40815,10.40815,0,0,0-9.375-8.5415v-5c0-.8335-.625-1.4585-1.66649-1.667h-3.125c-.8335,0-1.4585.625-1.667,1.667v4.7915c-6.25.8335-10.208,5-10.208,10.2085,0,6.875,4.1665,9.583,12.91649,10.625,5.83351,1.04149,7.70851,2.29149,7.70851,5.625s-2.917,5.625-6.875,5.625c-5.417,0-7.292-2.292-7.917-5.417a1.52152,1.52152,0,0,0-1.458-1.25h-3.542a1.424,1.424,0,0,0-1.458,1.4585v.2085c.833,5.208,4.1665,8.958,11.0415,10v5c0,.833.625,1.458,1.6665,1.6665h3.125c.83351,0,1.45851-.625,1.667-1.6665v-5c6.25-1.042,10.4165-5.417,10.4165-11.042Z" transform="translate(0 0)" style="fill:#fff"/><path d="M39.375,79.1665a31.17521,31.17521,0,0,1,0-58.5415,2.09111,2.09111,0,0,0,1.25-2.0835V15.625a1.58353,1.58353,0,0,0-1.25-1.6665,1.25456,1.25456,0,0,0-.8335.208,37.49,37.49,0,0,0,0,71.4585,1.2666,1.2666,0,0,0,1.875-.8335c.2085-.208.2085-.4165.2085-.833v-2.917A2.775,2.775,0,0,0,39.375,79.1665Zm22.0835-65A1.2666,1.2666,0,0,0,59.5835,15c-.2085.2085-.2085.4165-.2085.8335V18.75a2.76338,2.76338,0,0,0,1.25,2.0835,31.17521,31.17521,0,0,1,0,58.5415,2.09109,2.09109,0,0,0-1.25,2.0835V84.375a1.58353,1.58353,0,0,0,1.25,1.6665,1.25456,1.25456,0,0,0,.8335-.208,37.65066,37.65066,0,0,0,0-71.667Z" transform="translate(0 0)" style="fill:#fff"/></svg>